<?xml version="1.0" encoding="UTF-8" standalone="no"?>
<!-- Created with Inkscape (http://www.inkscape.org/) -->

<svg
   xmlns:dc="http://purl.org/dc/elements/1.1/"
   xmlns:cc="http://creativecommons.org/ns#"
   xmlns:rdf="http://www.w3.org/1999/02/22-rdf-syntax-ns#"
   xmlns:svg="http://www.w3.org/2000/svg"
   xmlns="http://www.w3.org/2000/svg"
   xmlns:sodipodi="http://sodipodi.sourceforge.net/DTD/sodipodi-0.dtd"
   xmlns:inkscape="http://www.inkscape.org/namespaces/inkscape"
   width="9.033124mm"
   height="9.0311108mm"
   viewBox="0 0 32.007132 31.999999"
   id="svg5989"
   version="1.1"
   inkscape:version="0.91 r13725"
   sodipodi:docname="siigaf.svg"
   inkscape:export-filename="C:\Users\Unimedios\Documents\pagina-web\iconos-servicios\siigaf.png"
   inkscape:export-xdpi="90"
   inkscape:export-ydpi="90">
  <defs
     id="defs5991" />
  <sodipodi:namedview
     id="base"
     pagecolor="#ffffff"
     bordercolor="#666666"
     borderopacity="1.0"
     inkscape:pageopacity="0.0"
     inkscape:pageshadow="2"
     inkscape:zoom="1"
     inkscape:cx="-168.49643"
     inkscape:cy="15.999999"
     inkscape:document-units="px"
     inkscape:current-layer="layer1"
     showgrid="false"
     fit-margin-top="0"
     fit-margin-left="0"
     fit-margin-right="0"
     fit-margin-bottom="0"
     inkscape:showpageshadow="false" />
  <metadata
     id="metadata5994">
    <rdf:RDF>
      <cc:Work
         rdf:about="">
        <dc:format>image/svg+xml</dc:format>
        <dc:type
           rdf:resource="http://purl.org/dc/dcmitype/StillImage" />
        <dc:title></dc:title>
      </cc:Work>
    </rdf:RDF>
  </metadata>
  <g
     inkscape:label="Capa 1"
     inkscape:groupmode="layer"
     id="layer1"
     transform="translate(164.57499,-264.93363)">
    <path
       inkscape:export-ydpi="90"
       inkscape:export-xdpi="90"
       inkscape:export-filename="C:\Users\Unimedios\Documents\gerencia-general\servicios-iconos\icnSiigaf.png"
       style="color:#000000;display:inline;overflow:visible;visibility:visible;fill:none;stroke:#ffffff;stroke-width:1;stroke-miterlimit:4;stroke-dasharray:none;marker:none;enable-background:accumulate"
       d="m -133.07499,280.93363 c 0,8.56039 -6.93961,15.5 -15.5,15.5 -8.56039,0 -15.5,-6.93961 -15.5,-15.5 0,-8.56044 6.93961,-15.5 15.5,-15.5 8.56039,0 15.5,6.93956 15.5,15.5 z"
       id="path5846"
       inkscape:connector-curvature="0" />
    <path
       id="path5886"
       style="fill:none;stroke:#ffffff;stroke-width:1px;stroke-linecap:butt;stroke-linejoin:miter;stroke-opacity:1"
       d="m -158.07496,283.4336 c 0,1.6568 1.3431,3 3,3 1.6569,0 3,-1.3432 3,-3 0,-1.6568 -1.3431,-3 -3,-3 l 0,0 c -1.65686,0 -3,-1.3432 -3,-3 l 0,0 c 0,-1.6568 1.34314,-3 3,-3 1.65685,0 3,1.3432 3,3"
       inkscape:connector-curvature="0"
       sodipodi:nodetypes="cscsssssc"
       inkscape:export-filename="C:\Users\Unimedios\Documents\gerencia-general\servicios-iconos\icnSiigaf.png"
       inkscape:export-xdpi="90"
       inkscape:export-ydpi="90" />
    <path
       inkscape:export-ydpi="90"
       inkscape:export-xdpi="90"
       inkscape:export-filename="C:\Users\Unimedios\Documents\gerencia-general\servicios-iconos\icnSiigaf.png"
       style="fill:none;stroke:#ffffff;stroke-width:1;stroke-linecap:square;stroke-linejoin:round;stroke-miterlimit:10"
       d="m -155.07498,287.4336 0,-14"
       id="path5895"
       inkscape:connector-curvature="0"
       sodipodi:nodetypes="cc" />
    <path
       inkscape:export-ydpi="90"
       inkscape:export-xdpi="90"
       inkscape:export-filename="C:\Users\Unimedios\Documents\gerencia-general\servicios-iconos\icnSiigaf.png"
       style="fill:none;stroke:#ffffff;stroke-width:1;stroke-linecap:round;stroke-linejoin:round;stroke-miterlimit:10"
       d="m -133.07498,281.4336 -5,0"
       id="path5897"
       inkscape:connector-curvature="0"
       sodipodi:nodetypes="cc" />
    <path
       inkscape:export-ydpi="90"
       inkscape:export-xdpi="90"
       inkscape:export-filename="C:\Users\Unimedios\Documents\gerencia-general\servicios-iconos\icnSiigaf.png"
       sodipodi:nodetypes="cc"
       inkscape:connector-curvature="0"
       id="path5899"
       d="m -136.07498,279.4336 -2,2"
       style="fill:none;stroke:#ffffff;stroke-width:1;stroke-linecap:round;stroke-linejoin:round;stroke-miterlimit:10" />
    <path
       inkscape:export-ydpi="90"
       inkscape:export-xdpi="90"
       inkscape:export-filename="C:\Users\Unimedios\Documents\gerencia-general\servicios-iconos\icnSiigaf.png"
       style="fill:none;stroke:#ffffff;stroke-width:1;stroke-linecap:round;stroke-linejoin:round;stroke-miterlimit:10"
       d="m -136.07498,283.4336 -2,-2"
       id="path5901"
       inkscape:connector-curvature="0"
       sodipodi:nodetypes="cc" />
    <path
       style="color:#000000;display:inline;overflow:visible;visibility:visible;fill:none;stroke:#ffffff;stroke-width:1;stroke-miterlimit:4;stroke-dasharray:none;marker:none;enable-background:accumulate"
       d="m -156.19998,294.35605 0,5e-5 c 0.25979,0.0224 0.51372,0.0625 0.78125,0.0625 0.93198,0 1.83993,-0.0702 2.71875,-0.25 0.87882,-0.17983 1.72369,-0.43968 2.53125,-0.78125 0.80756,-0.34157 1.5943,-0.76479 2.3125,-1.25 0.7182,-0.48521 1.35799,-1.04549 1.96875,-1.65625 0.61076,-0.61076 1.17104,-1.2818 1.65625,-2 0.48521,-0.7182 0.90843,-1.47369 1.25,-2.28125 0.34157,-0.80756 0.60142,-1.65243 0.78125,-2.53125 0.17983,-0.87882 0.28125,-1.81802 0.28125,-2.75 0,-0.93199 -0.10142,-1.83993 -0.28125,-2.71875 -0.17983,-0.87882 -0.43968,-1.72369 -0.78125,-2.53125 -0.34157,-0.80756 -0.76479,-1.56305 -1.25,-2.28125 -0.48521,-0.7182 -1.04549,-1.38925 -1.65625,-2 -0.61076,-0.61075 -1.25055,-1.17104 -1.96875,-1.65625 -0.7182,-0.48521 -1.50494,-0.90843 -2.3125,-1.25 -0.80756,-0.34157 -1.65243,-0.60142 -2.53125,-0.78125 -0.87882,-0.17983 -1.78677,-0.28125 -2.71875,-0.28125 -0.25767,0 -0.4998,0.0666 -0.75,0.0937"
       id="path5916"
       inkscape:connector-curvature="0"
       sodipodi:nodetypes="ccscsssssssssssssssc"
       inkscape:export-filename="C:\Users\Unimedios\Documents\gerencia-general\servicios-iconos\icnSiigaf.png"
       inkscape:export-xdpi="90"
       inkscape:export-ydpi="90" />
    <path
       style="color:#000000;display:inline;overflow:visible;visibility:visible;fill:none;stroke:#ffffff;stroke-width:1;stroke-miterlimit:4;stroke-dasharray:none;marker:none;enable-background:accumulate"
       d="m -159.79373,291.6061 c 1.31173,0.51822 2.72067,0.8125 4.21875,0.8125 1.58782,0 3.09291,-0.29307 4.46875,-0.875 1.37584,-0.58193 2.6157,-1.4282 3.65625,-2.46875 1.04055,-1.04055 1.88682,-2.28041 2.46875,-3.65625 0.58193,-1.37584 0.90625,-2.91218 0.90625,-4.5 0,-1.58783 -0.32432,-3.09291 -0.90625,-4.46875 -0.58193,-1.37584 -1.4282,-2.61571 -2.46875,-3.65625 -1.04055,-1.04054 -2.28041,-1.88682 -3.65625,-2.46875 -1.37584,-0.58193 -2.88093,-0.90625 -4.46875,-0.90625 -1.49817,0 -2.90696,0.32232 -4.21875,0.84375"
       id="path5927"
       inkscape:connector-curvature="0"
       sodipodi:nodetypes="csssssssssc"
       inkscape:export-filename="C:\Users\Unimedios\Documents\gerencia-general\servicios-iconos\icnSiigaf.png"
       inkscape:export-xdpi="90"
       inkscape:export-ydpi="90" />
  </g>
</svg>
