<?xml version="1.0" encoding="UTF-8" standalone="no"?>
<!-- Created with Inkscape (http://www.inkscape.org/) -->

<svg
   xmlns:dc="http://purl.org/dc/elements/1.1/"
   xmlns:cc="http://creativecommons.org/ns#"
   xmlns:rdf="http://www.w3.org/1999/02/22-rdf-syntax-ns#"
   xmlns:svg="http://www.w3.org/2000/svg"
   xmlns="http://www.w3.org/2000/svg"
   xmlns:sodipodi="http://sodipodi.sourceforge.net/DTD/sodipodi-0.dtd"
   xmlns:inkscape="http://www.inkscape.org/namespaces/inkscape"
   width="9.0311108mm"
   height="9.0311108mm"
   viewBox="0 0 31.999999 31.999999"
   id="svg4236"
   version="1.1"
   inkscape:version="0.91 r13725"
   sodipodi:docname="unidades.svg"
   inkscape:export-filename="C:\Users\Unimedios\Documents\pagina-web\iconos-servicios\unidades.png"
   inkscape:export-xdpi="90"
   inkscape:export-ydpi="90">
  <defs
     id="defs4238" />
  <sodipodi:namedview
     id="base"
     pagecolor="#ffffff"
     bordercolor="#666666"
     borderopacity="1.0"
     inkscape:pageopacity="0.0"
     inkscape:pageshadow="2"
     inkscape:zoom="1"
     inkscape:cx="15.999999"
     inkscape:cy="15.999999"
     inkscape:document-units="px"
     inkscape:current-layer="layer1"
     showgrid="false"
     inkscape:showpageshadow="false"
     fit-margin-top="0"
     fit-margin-left="0"
     fit-margin-right="0"
     fit-margin-bottom="0" />
  <metadata
     id="metadata4241">
    <rdf:RDF>
      <cc:Work
         rdf:about="">
        <dc:format>image/svg+xml</dc:format>
        <dc:type
           rdf:resource="http://purl.org/dc/dcmitype/StillImage" />
        <dc:title></dc:title>
      </cc:Work>
    </rdf:RDF>
  </metadata>
  <g
     inkscape:label="Capa 1"
     inkscape:groupmode="layer"
     id="layer1"
     transform="translate(-604,-382.07649)">
    <path
       style="color:#000000;display:inline;overflow:visible;visibility:visible;fill:none;stroke:#ffffff;stroke-width:1;stroke-miterlimit:4;marker:none;enable-background:accumulate"
       d="m 635.5,398.07649 c 0,8.5604 -6.93958,15.5 -15.5,15.5 -8.56041,0 -15.5,-6.9396 -15.5,-15.5 0,-8.5604 6.93959,-15.5 15.5,-15.5 8.56042,0 15.5,6.9396 15.5,15.5 z"
       id="path12853"
       inkscape:export-filename="C:\Users\Unimedios\Documents\veterinaria\iconos-servicios\servicios-unidades.png"
       inkscape:export-xdpi="90"
       inkscape:export-ydpi="90"
       inkscape:connector-curvature="0" />
    <path
       id="path12888"
       style="color:#000000;display:inline;overflow:visible;visibility:visible;fill:none;stroke:#ffffff;stroke-width:1;stroke-linejoin:round;stroke-miterlimit:4;marker:none;enable-background:accumulate"
       d="m 621.4998,392.56949 -4.26834,0 c 0.17112,-0.2919 0.26932,-0.6348 0.26932,-1.0006 0,-1.1046 -0.89544,-2 -2,-2 -1.10456,0 -2,0.8954 -2,2 l 0,0 c 0,0.3632 0.0968,0.7039 0.26459,0.9988 l -4.26557,0 0.003,4.2629 c 0.2971,-0.1691 0.6378,-0.2661 1.001,-0.2661 1.1046,0 2,0.8954 2,2 0,1.1046 -0.8954,2 -2,2 -0.3658,0 -0.7087,-0.098 -1.00415,-0.2698 l -3.5e-4,5.2774 4.26508,-0.01 c -0.1673,-0.291 -0.2641,-0.6317 -0.2641,-0.9949 0,-1.1046 0.89544,-2 2,-2 1.10456,0 2,0.8954 2,2 0,0.3658 -0.0982,0.7087 -0.26916,1.003 l 4.26818,-7e-4 3.5e-4,-5.2748 c 0.29545,0.1716 0.63835,0.2698 1.00415,0.2698 1.1046,0 2,-0.8954 2,-2 0,-1.1046 -0.8954,-2 -2,-2 -0.3632,0 -0.7039,0.097 -1.00075,0.2661 z"
       inkscape:connector-curvature="0"
       sodipodi:nodetypes="ccsscccccssscccssscccssscc"
       inkscape:export-filename="C:\Users\Unimedios\Documents\veterinaria\iconos-servicios\servicios-unidades.png"
       inkscape:export-xdpi="90"
       inkscape:export-ydpi="90" />
    <path
       id="path12896"
       d="m 629.5,397.57649 c 0,0.5523 -0.44772,1 -1,1 -0.55228,0 -1,-0.4477 -1,-1 0,-0.5523 0.44772,-1 1,-1 0.55228,0 1,0.4477 1,1 z"
       style="color:#000000;display:inline;overflow:visible;visibility:visible;fill:none;stroke:#ffffff;stroke-width:1;stroke-linecap:round;stroke-linejoin:round;stroke-miterlimit:4;stroke-dashoffset:0;stroke-opacity:1;marker:none;enable-background:accumulate"
       inkscape:connector-curvature="0"
       inkscape:export-filename="C:\Users\Unimedios\Documents\veterinaria\iconos-servicios\servicios-unidades.png"
       inkscape:export-xdpi="90"
       inkscape:export-ydpi="90" />
    <path
       id="path12898"
       d="m 629.5,402.57649 c 0,0.5523 -0.44772,1 -1,1 -0.55228,0 -1,-0.4477 -1,-1 0,-0.5523 0.44772,-1 1,-1 0.55228,0 1,0.4477 1,1 z"
       style="color:#000000;display:inline;overflow:visible;visibility:visible;fill:none;stroke:#ffffff;stroke-width:1;stroke-linecap:round;stroke-linejoin:round;stroke-miterlimit:4;stroke-dashoffset:0;stroke-opacity:1;marker:none;enable-background:accumulate"
       inkscape:connector-curvature="0"
       inkscape:export-filename="C:\Users\Unimedios\Documents\veterinaria\iconos-servicios\servicios-unidades.png"
       inkscape:export-xdpi="90"
       inkscape:export-ydpi="90" />
    <path
       id="path12900"
       d="m 629.5,392.57649 c 0,0.5523 -0.44772,1 -1,1 -0.55228,0 -1,-0.4477 -1,-1 0,-0.5523 0.44772,-1 1,-1 0.55228,0 1,0.4477 1,1 z"
       style="color:#000000;display:inline;overflow:visible;visibility:visible;fill:none;stroke:#ffffff;stroke-width:1;stroke-linecap:round;stroke-linejoin:round;stroke-miterlimit:4;stroke-dashoffset:0;stroke-opacity:1;marker:none;enable-background:accumulate"
       inkscape:connector-curvature="0"
       inkscape:export-filename="C:\Users\Unimedios\Documents\veterinaria\iconos-servicios\servicios-unidades.png"
       inkscape:export-xdpi="90"
       inkscape:export-ydpi="90" />
  </g>
</svg>
